<?xml version="1.0" encoding="UTF-8"?>
<svg id="Layer_1" xmlns="http://www.w3.org/2000/svg" version="1.1" viewBox="0 0 500 206.38">
  <!-- Generator: Adobe Illustrator 29.0.1, SVG Export Plug-In . SVG Version: 2.1.0 Build 192)  -->
  <defs>
    <style>
      .st0 {
        fill: #fff;
      }

      .st0, .st1, .st2 {
        fill-rule: evenodd;
      }

      .st3, .st2 {
        fill: #79b142;
      }

      .st1, .st4 {
        fill: #44546a;
      }
    </style>
  </defs>
  <path class="st3" d="M341.87,101.9v.94h-6.82v-.94c.24,0,.37-.09.37-.26,0-.14-.17-.38-.5-.73-.33-.35-.71-.75-1.13-1.2l-13-13.83v15.24c0,.52.37.78,1.1.78v.94h-6.45v-.94c.63,0,.94-.26.94-.78v-19.59c0-.52-.32-.78-.94-.78v-.94h7.71v.94c-.24.03-.37.12-.37.26,0,.18.38.65,1.15,1.41l12.58,13.3v-14.19c0-.52-.35-.78-1.05-.78v-.94h6.4v.94c-.63,0-.94.26-.94.78v19.59c0,.52.32.78.94.78ZM369.7,98.97c.42,0,.77-.1,1.05-.29s.42-.45.42-.76h.94v5.5h-.94c0-.31-.14-.49-.42-.52-.28-.04-.63-.05-1.05-.05h-19.24v-.94l.52-.18c.18-.12.26-.32.26-.6v-19.59c0-.28-.09-.48-.26-.6l-.52-.18v-.94h18.61c1.08,0,1.62-.31,1.62-.94h.94v5.81h-.94c0-.66-.54-.99-1.62-.99h-12.79v5.24h8.07c.59,0,1.03-.04,1.31-.13.28-.09.42-.32.42-.71h.94v5.55h-1.05c.11-.38-.04-.62-.42-.71-.39-.09-.93-.13-1.63-.13h-7.65v6.18h13.42ZM396.91,102.84v-.94c.45,0,.68-.16.68-.47,0-.35-.26-.89-.79-1.62l-4.14-6.18h-7.29v7.49c0,.28.11.48.34.6l.66.18v.94h-6.97v-.94c.63,0,.94-.26.94-.78v-19.59c0-.52-.31-.78-.94-.78v-.94h14.47c3.11,0,5.54.52,7.29,1.54,1.75,1.03,2.62,2.79,2.62,5.26,0,.94-.18,1.78-.52,2.51-.35.73-.81,1.37-1.39,1.91-.58.54-1.21.98-1.91,1.31-.7.33-1.42.59-2.15.76l5.14,7.49c.28.38.59.67.92.86s.69.34,1.07.45v.94h-8.02ZM398.91,86.5c0-.87-.41-1.56-1.23-2.07s-2.12-.76-3.9-.76h-8.28v6.08h8.28c3.42,0,5.14-1.08,5.14-3.25ZM435.47,98.83c.09.12.31.25.66.39v.63c-.31.21-.81.5-1.5.86s-1.54.73-2.57,1.07c-1.03.35-2.23.64-3.59.86-1.36.23-2.88.34-4.56.34-2.27,0-4.32-.25-6.16-.76-1.84-.51-3.39-1.26-4.67-2.28-1.28-1.01-2.25-2.24-2.94-3.69s-1.02-3.1-1.02-4.95.34-3.5,1.02-4.95,1.66-2.69,2.94-3.72c1.27-1.03,2.83-1.81,4.67-2.36s3.89-.81,6.16-.81c1.36,0,2.57.12,3.62.37,1.05.24,1.96.51,2.73.78.8.28,1.45.54,1.94.79s.86.37,1.1.37c.28,0,.49-.03.63-.08l.53-.34.63.31-3.04,5.71-.63-.37c.07-.35.1-.54.1-.58,0-.31-.23-.66-.68-1.02-.46-.37-1.05-.71-1.78-1.02s-1.56-.57-2.49-.76c-.93-.19-1.86-.29-2.81-.29-1.29,0-2.52.15-3.67.44-1.15.3-2.17.77-3.04,1.41-.88.65-1.58,1.48-2.1,2.49-.53,1.01-.79,2.25-.79,3.72s.28,2.7.84,3.69c.56,1,1.28,1.8,2.17,2.41.89.61,1.88,1.06,2.96,1.34s2.13.42,3.15.42c1.5,0,2.93-.1,4.28-.31,1.34-.21,2.58-.61,3.7-1.2v-3.3h-5.4c-.39,0-.72.08-1,.24-.28.16-.46.45-.53.86h-.94v-5.39h.94c.07.35.24.58.53.68.28.1.61.16,1,.16h10.27v.94c-.31.14-.53.3-.63.47-.11.18-.16.44-.16.78v4.98c0,.31.04.53.13.65ZM468.21,96.53c-.73,1.49-1.73,2.72-2.99,3.69-1.26.98-2.74,1.68-4.43,2.12-1.7.44-3.51.66-5.43.66s-3.73-.22-5.43-.66-3.17-1.14-4.43-2.12c-1.26-.98-2.25-2.21-2.99-3.69-.73-1.48-1.1-3.22-1.1-5.21s.37-3.73,1.1-5.21c.73-1.48,1.73-2.71,2.99-3.69,1.26-.98,2.73-1.71,4.43-2.2s3.51-.73,5.43-.73,3.73.24,5.43.73c1.69.49,3.17,1.22,4.43,2.2,1.26.98,2.25,2.21,2.99,3.69.73,1.49,1.1,3.22,1.1,5.21s-.37,3.73-1.1,5.21ZM463.52,87.97c-.51-.98-1.18-1.81-2.02-2.49s-1.79-1.2-2.86-1.57c-1.07-.37-2.16-.55-3.27-.55s-2.21.18-3.28.55-2.02.89-2.86,1.57-1.51,1.51-2.02,2.49c-.51.98-.76,2.1-.76,3.35s.25,2.38.76,3.35c.51.98,1.18,1.81,2.02,2.49s1.79,1.2,2.86,1.57c1.07.37,2.16.55,3.28.55s2.21-.18,3.27-.55c1.07-.37,2.02-.89,2.86-1.57s1.51-1.51,2.02-2.49c.51-.98.76-2.1.76-3.35s-.25-2.37-.76-3.35Z"/>
  <path class="st4" d="M263.02,102.84v-.94c.31,0,.58-.05.81-.16l.34-.42-.21-.6c-.14-.23-.35-.53-.63-.92l-5.77-8.17h-7.5v9.32c0,.31.11.55.34.71s.64.24,1.23.24v.94h-9.07v-.94c1.01,0,1.52-.31,1.52-.94v-23.78c0-.63-.51-.94-1.52-.94v-.94h17.93c1.68,0,3.2.15,4.56.45,1.36.3,2.54.77,3.51,1.41s1.73,1.48,2.25,2.51c.53,1.03.78,2.3.78,3.8,0,2.3-.68,4.07-2.04,5.29-1.36,1.22-3.2,2.04-5.51,2.46l6.97,9.95c.24.35.53.56.86.63.33.07.64.1.92.1v.94h-9.8ZM264.28,86.45c.49-.35.84-.76,1.05-1.23.21-.47.31-.99.31-1.54s-.1-1.07-.31-1.55c-.21-.47-.56-.88-1.05-1.23-.49-.35-1.15-.62-1.99-.81s-1.89-.29-3.15-.29h-9.07v7.75h9.07c1.26,0,2.31-.1,3.15-.29.84-.19,1.5-.46,1.99-.81ZM305.17,98.02c.52,0,.95-.12,1.28-.37.33-.24.5-.58.5-1h.94v7.18h-.94c0-.52-.16-.82-.5-.89-.33-.07-.76-.1-1.28-.1h-24.43v-.94c.24,0,.46-.08.65-.24.19-.16.29-.39.29-.71v-23.78c0-.31-.1-.55-.29-.71-.19-.16-.41-.23-.65-.23v-.94h23.91c.73,0,1.25-.11,1.55-.34.3-.23.45-.53.45-.92h.94v6.91h-.94c0-.38-.15-.67-.45-.86-.3-.19-.81-.29-1.55-.29h-16.99v6.49h10.27c.7,0,1.24-.1,1.63-.29.39-.19.58-.69.58-1.49h.94v8.17h-.94c0-.8-.19-1.32-.58-1.55-.38-.23-.93-.34-1.63-.34h-10.27v7.23h17.51Z"/>
  <path class="st4" d="M251.4,120.49c-.93,1.02-2.34,1.52-4.24,1.52h-4.37v-.27h.37c.41,0,.7-.13.88-.39.11-.16.16-.52.16-1.07v-6.3c0-.61-.07-.99-.2-1.14-.19-.21-.46-.32-.83-.32h-.37v-.27h3.97c1.46,0,2.58.17,3.34.5.76.33,1.37.88,1.83,1.66.46.77.69,1.67.69,2.68,0,1.36-.41,2.49-1.24,3.4h0ZM249.89,113.97c-.74-.78-1.68-1.17-2.83-1.17-.43,0-.92.07-1.47.21v8.3c.61.14,1.12.2,1.53.2,1.12,0,2.04-.39,2.78-1.18.74-.78,1.1-1.84,1.1-3.18s-.37-2.42-1.1-3.19h0ZM270.83,121.18c.04.09.11.17.2.22.1.06.28.08.54.08h1.66c.55,0,.95-.04,1.2-.12.25-.08.49-.23.73-.45.3-.3.6-.75.91-1.35h.29l-.85,2.45h-7.52v-.27h.34c.23,0,.45-.05.65-.16.16-.08.26-.2.32-.35.06-.15.08-.47.08-.94v-6.34c0-.62-.06-1-.19-1.14-.17-.19-.46-.29-.87-.29h-.34v-.27h7.52l.11,2.14h-.28c-.1-.51-.21-.86-.34-1.05-.12-.19-.31-.34-.55-.45-.19-.07-.53-.1-1.01-.1h-2.68v3.86h2.15c.56,0,.93-.08,1.12-.25.25-.22.39-.61.42-1.17h.26v3.39h-.26c-.07-.47-.14-.78-.2-.91-.09-.17-.23-.3-.42-.4-.2-.1-.5-.14-.91-.14h-2.15v3.22c0,.43.02.7.06.79h0ZM300.88,112.86c-.25.24-.48.6-.68,1.08l-3.41,8.3h-.26l-3.67-8.42c-.19-.43-.32-.69-.39-.79-.12-.15-.27-.26-.45-.35-.17-.08-.41-.14-.71-.16v-.27h3.99v.27c-.45.04-.75.12-.88.23-.13.11-.2.25-.2.43,0,.24.11.61.33,1.12l2.49,5.73,2.31-5.65c.22-.56.34-.95.34-1.16,0-.14-.07-.27-.21-.4-.14-.13-.37-.22-.7-.27-.02,0-.06,0-.12-.02v-.27h3.01v.27c-.34.06-.6.17-.78.34h0ZM319.48,121.18c.04.09.11.17.2.22.1.06.28.08.54.08h1.66c.55,0,.95-.04,1.2-.12.25-.08.49-.23.73-.45.3-.3.6-.75.91-1.35h.29l-.85,2.45h-7.52v-.27h.34c.23,0,.45-.05.65-.16.16-.08.26-.2.32-.35.06-.15.08-.47.08-.94v-6.34c0-.62-.06-1-.19-1.14-.17-.19-.46-.29-.87-.29h-.34v-.27h7.52l.11,2.14h-.28c-.1-.51-.21-.86-.34-1.05-.12-.19-.31-.34-.55-.45-.19-.07-.53-.1-1.02-.1h-2.68v3.86h2.15c.56,0,.93-.08,1.12-.25.25-.22.39-.61.42-1.17h.26v3.39h-.26c-.07-.47-.14-.78-.2-.91-.09-.17-.23-.3-.42-.4-.2-.1-.5-.14-.91-.14h-2.15v3.22c0,.43.02.7.06.79h0ZM347.69,122.02h-7.56v-.27h.36c.42,0,.71-.13.88-.4.1-.16.16-.51.16-1.07v-6.3c0-.61-.07-.99-.2-1.14-.19-.21-.47-.32-.84-.32h-.36v-.27h4.42v.27c-.52,0-.89.04-1.09.14-.21.1-.35.23-.43.38-.08.15-.12.52-.12,1.1v6.13c0,.4.04.68.12.83.06.1.14.17.26.22.12.05.5.07,1.12.07h.72c.74,0,1.27-.05,1.57-.16.3-.11.58-.3.83-.59.25-.28.5-.72.75-1.33l.23.05-.84,2.65h0ZM372.02,120.77c-.94.98-2.07,1.47-3.41,1.47s-2.47-.48-3.38-1.43c-.92-.96-1.37-2.19-1.37-3.71s.53-2.81,1.58-3.79c.92-.85,2.02-1.27,3.3-1.27s2.36.48,3.29,1.45c.93.96,1.4,2.17,1.4,3.6s-.47,2.71-1.41,3.69h0ZM370.78,113.54c-.53-.65-1.26-.98-2.19-.98-.88,0-1.58.32-2.1.97-.66.81-.99,1.99-.99,3.54s.34,2.82,1.02,3.68c.52.65,1.21.98,2.08.98.92,0,1.68-.36,2.27-1.07.6-.72.89-1.84.89-3.38,0-1.67-.33-2.91-.99-3.74h0ZM395.38,116.9c-.53.5-1.27.75-2.22.75-.24,0-.49-.02-.77-.05-.28-.03-.57-.08-.88-.14v2.84c0,.61.07,1,.2,1.14.18.21.46.32.83.32h.37v.27h-4.19v-.27h.37c.41,0,.7-.13.88-.4.09-.15.14-.5.14-1.06v-6.3c0-.61-.06-1-.19-1.14-.19-.21-.47-.32-.84-.32h-.37v-.27h3.58c.88,0,1.56.09,2.07.27.5.18.93.49,1.28.91.35.42.52.93.52,1.52,0,.79-.26,1.44-.79,1.94h0ZM394.27,113.92c-.17-.36-.42-.63-.74-.81-.32-.18-.68-.27-1.08-.27-.24,0-.56.05-.94.14v4.05c.25.05.48.09.68.11.2.02.37.04.5.04.5,0,.93-.19,1.29-.58.36-.39.54-.89.54-1.5,0-.42-.09-.81-.26-1.18h0ZM414.32,121.18c.04.09.11.17.2.22.1.06.28.08.54.08h1.66c.55,0,.95-.04,1.2-.12.25-.08.49-.23.73-.45.3-.3.6-.75.91-1.35h.29l-.85,2.45h-7.52v-.27h.34c.23,0,.45-.05.65-.16.16-.08.26-.2.32-.35.06-.15.08-.47.08-.94v-6.34c0-.62-.06-1-.19-1.14-.17-.19-.46-.29-.87-.29h-.34v-.27h7.52l.11,2.14h-.28c-.1-.51-.21-.86-.34-1.05-.12-.19-.31-.34-.55-.45-.19-.07-.53-.1-1.02-.1h-2.68v3.86h2.15c.56,0,.93-.08,1.12-.25.25-.22.39-.61.42-1.17h.26v3.39h-.26c-.07-.47-.14-.78-.2-.91-.09-.17-.23-.3-.42-.4-.2-.1-.5-.14-.91-.14h-2.15v3.22c0,.43.02.7.06.79h0ZM442.04,122.02l-3.3-4.57c-.25.01-.45.02-.6.02-.07,0-.14,0-.21,0-.07,0-.14,0-.22-.01v2.84c0,.61.07,1,.2,1.14.18.21.45.32.82.32h.38v.27h-4.19v-.27h.37c.41,0,.7-.13.88-.4.1-.15.15-.5.15-1.06v-6.3c0-.61-.07-1-.21-1.14-.19-.21-.46-.32-.83-.32h-.37v-.27h3.56c1.04,0,1.81.08,2.3.23.49.15.91.43,1.25.84.34.41.52.89.52,1.46,0,.6-.2,1.11-.59,1.56-.39.44-1,.76-1.82.94l2.02,2.8c.46.64.85,1.07,1.19,1.28.33.21.76.34,1.3.4v.27h-2.61ZM440.22,116.4c.47-.4.71-.92.71-1.54s-.19-1.11-.57-1.49c-.38-.38-.89-.57-1.52-.57-.28,0-.66.05-1.13.14v4.06h.4c.93,0,1.63-.2,2.11-.6h0ZM463.51,116.36c.91.49,1.53.86,1.87,1.12.33.26.59.57.77.93s.27.73.27,1.11c0,.74-.29,1.38-.86,1.91-.57.54-1.31.8-2.21.8-.29,0-.55-.02-.8-.06-.15-.02-.46-.11-.93-.26-.47-.15-.76-.23-.89-.23-.12,0-.21.04-.28.11-.07.07-.12.22-.15.45h-.27v-3.35h.27c.12.7.29,1.22.5,1.57.21.35.53.64.97.87.43.23.91.35,1.43.35.6,0,1.07-.16,1.42-.48.35-.32.53-.69.53-1.12,0-.24-.07-.49-.2-.73-.13-.24-.34-.47-.62-.68-.19-.14-.7-.45-1.53-.92-.83-.47-1.43-.84-1.78-1.12-.35-.28-.62-.59-.8-.92-.18-.34-.27-.7-.27-1.11,0-.7.27-1.31.8-1.81.54-.51,1.22-.76,2.05-.76.52,0,1.07.13,1.66.38.27.12.46.19.57.19.12,0,.22-.04.3-.11.08-.07.14-.23.19-.46h.27v3.38h-.27c-.09-.64-.24-1.16-.47-1.54-.22-.38-.54-.69-.95-.92-.41-.23-.84-.34-1.28-.34-.5,0-.92.15-1.24.46-.33.31-.49.65-.49,1.04,0,.3.1.57.31.82.3.36,1.01.84,2.13,1.44h0Z"/>
  <rect class="st4" x="242.11" y="129.85" width="225.49" height="16.73"/>
  <path class="st2" d="M322.48,135.43c1.23,0,2.23,1,2.23,2.23s-1,2.23-2.23,2.23-2.23-1-2.23-2.23,1-2.23,2.23-2.23h0Z"/>
  <path class="st0" d="M251.65,142c-2.5,0-2.87-2.69-2.87-4.59s.42-4.69,2.98-4.69c1.27,0,2.21.87,2.29,2.11h-.95c-.01-.74-.56-1.33-1.33-1.33-1.92,0-2.05,2.55-2.05,3.93,0,1.3.14,3.78,1.96,3.78.95,0,1.52-.69,1.53-1.57h.95c-.1,1.45-1,2.35-2.52,2.35Z"/>
  <path class="st0" d="M261.57,142c-2.81,0-2.79-3.37-2.79-4.63,0-3.73,1.26-4.64,2.79-4.64,2.66,0,2.8,2.97,2.8,4.64,0,1.19.09,4.63-2.8,4.63Z"/>
  <path class="st0" d="M274.63,142h-.95v-.87c-.47.56-1.16.87-1.91.87s-2.74-.12-2.74-4.44c0-3.53,1.1-4.83,2.87-4.83,1.54,0,2.26,1.07,2.29,2.45h-.95c.08-.82-.33-1.67-1.29-1.67-1.9,0-1.97,2.59-1.97,3.92,0,1.24.06,3.79,1.85,3.79.89,0,1.86-.69,1.86-2.48v-.59h-2.15v-.78h3.1v4.63Z"/>
  <polygon class="st0" points="283.51 133.68 282.28 133.68 282.28 141.04 283.51 141.04 283.51 141.82 280.1 141.82 280.1 141.04 281.33 141.04 281.33 133.68 280.1 133.68 280.1 132.9 283.51 132.9 283.51 133.68"/>
  <polygon class="st0" points="294.97 133.68 292.38 133.68 292.38 141.82 291.43 141.82 291.43 133.68 288.89 133.68 288.89 132.9 294.97 132.9 294.97 133.68"/>
  <path class="st0" d="M302.04,142c-2.81,0-2.79-3.37-2.79-4.63,0-3.73,1.26-4.64,2.79-4.64,2.66,0,2.8,2.97,2.8,4.64,0,1.19.09,4.63-2.8,4.63Z"/>
  <polygon class="st0" points="345.29 141.82 340.47 141.82 340.47 132.9 345.2 132.9 345.2 133.68 341.42 133.68 341.42 136.85 344.14 136.85 344.14 137.63 341.42 137.63 341.42 141.04 345.29 141.04 345.29 141.82"/>
  <path class="st0" d="M355.01,141.82l-2.21-3.72c-.46.01-.91.01-1.37.02v3.69h-.95v-8.92h2.37c2.28,0,2.48,2.01,2.48,2.53,0,.92-.35,1.76-1.62,2.47l2.45,3.93h-1.15Z"/>
  <path class="st0" d="M365.67,142h-.95v-.87c-.47.56-1.16.87-1.91.87s-2.74-.12-2.74-4.44c0-3.53,1.1-4.83,2.87-4.83,1.54,0,2.26,1.07,2.29,2.45h-.95c.08-.82-.33-1.67-1.29-1.67-1.9,0-1.97,2.59-1.97,3.92,0,1.24.06,3.79,1.85,3.79.89,0,1.86-.69,1.86-2.48v-.59h-2.15v-.78h3.1v4.63Z"/>
  <path class="st0" d="M372.86,142c-2.81,0-2.8-3.37-2.8-4.63,0-3.73,1.27-4.64,2.8-4.64,2.66,0,2.79,2.97,2.79,4.64,0,1.19.09,4.63-2.79,4.63Z"/>
  <path class="st0" d="M415.71,141.82l-2.21-3.72c-.46.01-.91.01-1.37.02v3.69h-.95v-8.92h2.37c2.28,0,2.48,2.01,2.48,2.53,0,.92-.35,1.76-1.62,2.47l2.45,3.93h-1.15Z"/>
  <polygon class="st0" points="426.22 141.82 421.4 141.82 421.4 132.9 426.13 132.9 426.13 133.68 422.35 133.68 422.35 136.85 425.07 136.85 425.07 137.63 422.35 137.63 422.35 141.04 426.22 141.04 426.22 141.82"/>
  <polygon class="st0" points="436.07 141.91 435.17 141.91 432.19 134.71 432.16 134.73 432.16 141.82 431.21 141.82 431.21 132.9 432.31 132.9 435.08 139.57 435.12 139.57 435.12 132.9 436.07 132.9 436.07 141.91"/>
  <polygon class="st0" points="446.45 141.82 441.63 141.82 441.63 132.9 446.36 132.9 446.36 133.68 442.58 133.68 442.58 136.85 445.3 136.85 445.3 137.63 442.58 137.63 442.58 141.04 446.45 141.04 446.45 141.82"/>
  <polygon class="st0" points="455.99 141.91 454.9 141.91 453.75 138.04 452.58 141.91 451.54 141.91 450.78 132.9 451.8 132.9 452.28 139.87 452.31 139.87 453.75 135.39 455.18 139.87 455.2 139.87 455.66 132.9 456.68 132.9 455.99 141.91"/>
  <path class="st2" d="M392.81,135.43c1.23,0,2.23,1,2.23,2.23s-1,2.23-2.23,2.23-2.23-1-2.23-2.23,1-2.23,2.23-2.23h0Z"/>
  <path class="st1" d="M354.38,135.38c0-1.19-.51-1.7-2.01-1.7h-.94v3.66h.9c1.29,0,2.05-.64,2.05-1.96Z"/>
  <path class="st1" d="M261.57,133.51c-2.02,0-1.85,3.33-1.85,3.85,0,1.02-.05,3.85,1.85,3.85.95,0,1.85-.62,1.85-3.85,0-.82.13-3.85-1.85-3.85Z"/>
  <path class="st1" d="M302.04,133.51c-2.02,0-1.85,3.33-1.85,3.85,0,1.02-.05,3.85,1.85,3.85.95,0,1.85-.62,1.85-3.85,0-.82.13-3.85-1.85-3.85Z"/>
  <path class="st1" d="M372.86,133.51c-2.02,0-1.85,3.33-1.85,3.85,0,1.02-.05,3.85,1.85,3.85.95,0,1.85-.62,1.85-3.85,0-.82.13-3.85-1.85-3.85Z"/>
  <path class="st1" d="M415.08,135.38c0-1.19-.51-1.7-2.01-1.7h-.94v3.66h.9c1.29,0,2.05-.64,2.05-1.96Z"/>
  <path class="st3" d="M112.73,57.22c-.21-1.74-.75-3.69-1.61-5.87-.74-1.47-1.38-2.73-1.93-3.78-.55-1.06-1.04-1.96-1.48-2.7l1.28,1.09c1.36,1.42,2.55,3.08,3.58,4.96.86,1.55,1.55,3.37,2.08,5.45.18.91.37,1.82.55,2.73s.36,1.82.54,2.73c.76,3.57,1.91,7.03,3.47,10.37-2.5-1.94-4.66-6.93-6.49-14.98"/>
  <path class="st3" d="M105.32,18.88c-.18,1.17-.39,2.57-.63,4.19-.13,2.33-.02,4.36.33,6.08.81,8.2.34,13.61-1.42,16.24.42-3.65.43-7.3.01-10.92-.12-.92-.23-1.84-.35-2.76-.12-.92-.23-1.84-.35-2.76-.15-2.14-.07-4.08.25-5.82.38-2.1,1-4.05,1.83-5.82l.87-1.43c-.18.84-.37,1.85-.55,3.02"/>
  <path class="st3" d="M107.86,58.15c-.4-1.7-1.15-3.59-2.25-5.66-.89-1.38-1.67-2.56-2.33-3.55-.66-.99-1.25-1.83-1.77-2.52l1.39.94c1.51,1.27,2.88,2.78,4.11,4.53,1.02,1.45,1.91,3.18,2.66,5.19.28.89.56,1.77.84,2.66.28.89.56,1.77.84,2.66,1.14,3.47,2.67,6.77,4.59,9.92-2.7-1.66-5.4-6.38-8.09-14.17"/>
  <path class="st3" d="M96.29,20.85c-.06,1.19-.11,2.6-.17,4.24.13,2.33.46,4.34.99,6,1.71,8.06,1.83,13.49.38,16.3.02-3.68-.38-7.3-1.19-10.86-.22-.9-.43-1.81-.65-2.71-.22-.9-.43-1.81-.65-2.71-.38-2.11-.51-4.05-.39-5.81.15-2.14.55-4.14,1.18-5.99l.71-1.52c-.09.86-.16,1.88-.22,3.06"/>
  <path class="st3" d="M103.13,59.61c-.59-1.65-1.54-3.44-2.85-5.38-1.04-1.27-1.94-2.36-2.7-3.27-.77-.91-1.44-1.68-2.03-2.31l1.49.78c1.64,1.09,3.16,2.45,4.58,4.06,1.17,1.33,2.24,2.95,3.22,4.87.38.85.75,1.7,1.13,2.55.38.85.75,1.7,1.13,2.55,1.52,3.32,3.4,6.44,5.65,9.36-2.86-1.35-6.06-5.75-9.6-13.2"/>
  <path class="st3" d="M87.53,23.81c.08,1.19.18,2.6.3,4.23.39,2.31.94,4.26,1.65,5.86,2.59,7.82,3.3,13.21,2.16,16.16-.39-3.66-1.18-7.21-2.37-10.66-.31-.87-.63-1.75-.94-2.62-.31-.88-.63-1.75-.94-2.62-.61-2.05-.95-3.97-1.03-5.74-.08-2.14.09-4.17.52-6.09l.54-1.59c0,.86.05,1.88.12,3.07"/>
  <path class="st3" d="M98.59,61.58c-.77-1.57-1.91-3.25-3.43-5.03-1.17-1.15-2.19-2.13-3.05-2.96-.86-.82-1.62-1.51-2.28-2.07l1.57.62c1.75.91,3.41,2.08,5,3.53,1.31,1.19,2.55,2.69,3.73,4.48.47.8.94,1.6,1.4,2.41.47.81.93,1.61,1.4,2.41,1.87,3.14,4.08,6.03,6.64,8.68-2.99-1.03-6.66-5.05-10.99-12.07"/>
  <path class="st3" d="M79.15,27.7c.21,1.17.46,2.56.76,4.17.64,2.25,1.4,4.13,2.28,5.64,3.43,7.49,4.73,12.77,3.92,15.82-.79-3.59-1.96-7.04-3.53-10.33-.41-.83-.82-1.67-1.23-2.5-.41-.83-.82-1.67-1.23-2.5-.83-1.98-1.38-3.84-1.65-5.59-.32-2.12-.37-4.15-.15-6.11l.36-1.64c.1.85.26,1.87.46,3.04"/>
  <path class="st3" d="M94.28,64.03c-.93-1.48-2.25-3.02-3.96-4.63-1.29-1.01-2.41-1.88-3.35-2.6-.94-.72-1.77-1.33-2.49-1.81l1.62.44c1.84.71,3.62,1.7,5.35,2.96,1.43,1.04,2.84,2.39,4.2,4.05.55.75,1.11,1.49,1.66,2.24.55.75,1.1,1.49,1.66,2.24,2.2,2.91,4.72,5.55,7.55,7.9-3.09-.69-7.17-4.29-12.25-10.79"/>
  <path class="st3" d="M71.25,32.5c.33,1.14.74,2.5,1.22,4.06.88,2.17,1.84,3.95,2.88,5.36,4.23,7.07,6.11,12.17,5.64,15.3-1.17-3.49-2.72-6.78-4.64-9.89-.5-.78-.99-1.57-1.49-2.35-.5-.79-.99-1.57-1.49-2.35-1.04-1.87-1.8-3.66-2.25-5.37-.55-2.07-.82-4.09-.82-6.05l.18-1.67c.19.84.46,1.83.79,2.97"/>
  <path class="st3" d="M90.28,66.95c-1.09-1.37-2.57-2.76-4.44-4.16-1.4-.86-2.6-1.6-3.62-2.22-1.02-.61-1.91-1.12-2.67-1.53l1.66.26c1.9.51,3.79,1.29,5.65,2.35,1.54.88,3.08,2.07,4.62,3.56.63.68,1.27,1.37,1.9,2.05.63.68,1.26,1.36,1.89,2.05,2.51,2.65,5.3,4.99,8.38,7.02-3.15-.35-7.6-3.48-13.36-9.38"/>
  <path class="st3" d="M63.92,38.13c.46,1.1,1.01,2.4,1.65,3.91,1.11,2.05,2.27,3.73,3.46,5.01,4.98,6.56,7.41,11.43,7.28,14.59-1.55-3.34-3.45-6.44-5.7-9.32-.58-.73-1.16-1.45-1.74-2.18-.58-.73-1.16-1.45-1.74-2.18-1.24-1.75-2.19-3.44-2.83-5.1-.77-2-1.27-3.97-1.48-5.92v-1.68c.28.81.65,1.77,1.1,2.86"/>
  <path class="st3" d="M86.62,70.28c-1.23-1.24-2.86-2.46-4.87-3.65-1.48-.71-2.76-1.31-3.84-1.81-1.08-.5-2.02-.91-2.82-1.23l1.68.07c1.95.29,3.9.87,5.87,1.72,1.63.71,3.29,1.72,4.99,3.03.7.61,1.4,1.22,2.11,1.83s1.4,1.22,2.11,1.83c2.79,2.36,5.82,4.38,9.09,6.06-3.17,0-7.94-2.62-14.31-7.86"/>
  <path class="st3" d="M57.25,44.53c.57,1.04,1.27,2.28,2.07,3.7,1.33,1.92,2.66,3.45,3.98,4.6,5.67,5.98,8.62,10.55,8.84,13.7-1.91-3.15-4.13-6.02-6.68-8.63-.66-.66-1.31-1.32-1.97-1.97-.66-.66-1.31-1.32-1.97-1.97-1.43-1.6-2.55-3.18-3.37-4.75-.99-1.9-1.69-3.81-2.12-5.73l-.19-1.67c.37.78.85,1.68,1.42,2.73"/>
  <path class="st3" d="M83.34,74c-1.36-1.1-3.11-2.13-5.24-3.09-1.55-.54-2.89-1-4.02-1.38-1.13-.38-2.11-.68-2.94-.91l1.68-.11c1.97.08,3.98.43,6.02,1.07,1.69.52,3.46,1.34,5.29,2.47.77.53,1.53,1.05,2.3,1.58.76.53,1.53,1.06,2.29,1.59,3.03,2.04,6.26,3.72,9.7,5.03-3.15.34-8.18-1.74-15.08-6.24"/>
  <path class="st3" d="M51.33,51.63c.68.97,1.51,2.12,2.47,3.45,1.53,1.76,3.02,3.14,4.46,4.13,6.29,5.32,9.72,9.54,10.29,12.65-2.24-2.92-4.77-5.54-7.6-7.85-.72-.58-1.45-1.16-2.17-1.74-.72-.58-1.45-1.16-2.18-1.74-1.6-1.43-2.89-2.88-3.87-4.35-1.19-1.78-2.1-3.6-2.74-5.46l-.37-1.64c.46.73,1.03,1.58,1.71,2.55"/>
  <path class="st3" d="M80.5,78.05c-1.47-.94-3.33-1.78-5.55-2.5-1.6-.37-2.98-.68-4.15-.93-1.16-.25-2.17-.44-3.02-.58l1.65-.29c1.97-.14,4,0,6.11.4,1.74.33,3.58.95,5.53,1.87.82.44,1.64.88,2.45,1.32.82.44,1.64.88,2.45,1.32,3.23,1.7,6.63,3.01,10.2,3.93-3.09.69-8.32-.83-15.68-4.54"/>
  <path class="st3" d="M46.22,59.33c.79.89,1.73,1.94,2.83,3.16,1.72,1.58,3.35,2.79,4.89,3.62,6.84,4.6,10.71,8.41,11.61,11.44-2.55-2.65-5.35-4.98-8.41-6.97-.78-.5-1.57-1-2.35-1.49-.78-.5-1.57-1-2.35-1.49-1.74-1.25-3.19-2.55-4.33-3.9-1.38-1.64-2.49-3.35-3.32-5.13l-.55-1.59c.53.68,1.19,1.46,1.98,2.35"/>
  <path class="st3" d="M78.11,82.4c-1.57-.78-3.5-1.4-5.79-1.88-1.63-.19-3.04-.34-4.22-.47-1.18-.12-2.21-.21-3.07-.24l1.61-.47c1.94-.36,3.98-.45,6.11-.28,1.77.14,3.67.56,5.7,1.25.86.35,1.72.7,2.58,1.04.86.35,1.72.7,2.59,1.04,3.4,1.33,6.92,2.26,10.57,2.79-3,1.02-8.36.09-16.08-2.8"/>
  <path class="st3" d="M41.99,67.55c.88.8,1.93,1.74,3.16,2.83,1.88,1.39,3.64,2.4,5.26,3.06,7.3,3.82,11.57,7.18,12.8,10.1-2.82-2.36-5.86-4.36-9.12-6-.83-.41-1.67-.82-2.5-1.23-.83-.41-1.67-.82-2.5-1.23-1.87-1.05-3.45-2.18-4.73-3.4-1.55-1.48-2.84-3.06-3.86-4.73l-.72-1.52c.61.62,1.35,1.32,2.23,2.12"/>
  <path class="st3" d="M76.22,86.97c-1.64-.6-3.63-1.01-5.96-1.23-1.64,0-3.05,0-4.25,0-1.19,0-2.22.04-3.08.09l1.55-.65c1.89-.56,3.9-.88,6.04-.94,1.77-.05,3.71.15,5.8.62.89.25,1.79.5,2.68.75.89.25,1.79.51,2.69.76,3.53.95,7.13,1.49,10.81,1.61-2.87,1.34-8.3,1.01-16.29-1.01"/>
  <path class="st3" d="M38.69,76.18c.96.7,2.11,1.52,3.45,2.47,2.02,1.17,3.88,1.99,5.56,2.47,7.68,3,12.29,5.87,13.83,8.63-3.07-2.03-6.31-3.69-9.73-4.96-.87-.32-1.75-.63-2.62-.95-.88-.32-1.75-.63-2.62-.94-1.98-.84-3.67-1.79-5.08-2.86-1.7-1.3-3.15-2.73-4.36-4.28l-.88-1.43c.67.54,1.48,1.17,2.44,1.86"/>
  <path class="st3" d="M74.84,91.73c-1.7-.41-3.72-.6-6.06-.57-1.63.17-3.04.33-4.22.47-1.18.14-2.2.28-3.05.43l1.47-.82c1.81-.77,3.78-1.3,5.91-1.6,1.75-.25,3.7-.26,5.84-.02.92.15,1.83.3,2.75.45.92.16,1.83.31,2.75.46,3.61.56,7.25.7,10.92.42-2.7,1.65-8.14,1.91-16.31.78"/>
  <path class="st3" d="M36.35,85.12c1.03.59,2.27,1.28,3.7,2.07,2.14.94,4.07,1.55,5.8,1.84,7.96,2.13,12.86,4.49,14.7,7.06-3.27-1.69-6.67-2.98-10.22-3.87-.9-.22-1.8-.44-2.71-.65-.9-.22-1.81-.44-2.71-.65-2.05-.62-3.84-1.38-5.36-2.29-1.83-1.1-3.44-2.36-4.8-3.77l-1.04-1.32c.73.47,1.6.99,2.64,1.58"/>
  <path class="st3" d="M73.99,96.61c-1.74-.22-3.76-.19-6.09.1-1.6.35-2.98.66-4.14.93-1.16.27-2.15.52-2.98.76l1.37-.97c1.72-.96,3.62-1.71,5.69-2.24,1.72-.44,3.65-.66,5.8-.66.93.05,1.86.1,2.78.15.93.05,1.86.1,2.79.15,3.65.16,7.28-.1,10.9-.78-2.5,1.94-7.88,2.79-16.12,2.57"/>
  <path class="st3" d="M35.01,94.27c1.09.47,2.39,1.02,3.91,1.65,2.23.7,4.22,1.1,5.97,1.19,8.14,1.25,13.27,3.05,15.38,5.41-3.44-1.32-6.96-2.23-10.58-2.72-.92-.12-1.84-.23-2.76-.35-.92-.12-1.84-.23-2.76-.35-2.11-.39-3.97-.95-5.58-1.69-1.94-.9-3.67-1.97-5.19-3.23l-1.17-1.2c.77.39,1.7.81,2.79,1.28"/>
  <path class="st3" d="M73.68,101.55c-1.75-.03-3.76.22-6.04.77-1.55.53-2.89.98-4.02,1.38-1.12.39-2.08.76-2.88,1.09l1.26-1.12c1.6-1.14,3.4-2.1,5.41-2.85,1.66-.63,3.56-1.06,5.69-1.29.93-.05,1.86-.11,2.78-.16.93-.05,1.85-.1,2.78-.16,3.64-.24,7.23-.9,10.75-1.98-2.28,2.2-7.52,3.64-15.74,4.32"/>
  <path class="st3" d="M34.68,103.51c1.14.35,2.49.75,4.06,1.22,2.29.45,4.31.63,6.06.53,8.23.35,13.53,1.58,15.88,3.68-3.56-.93-7.16-1.45-10.81-1.54-.93-.02-1.86-.03-2.79-.04-.93-.02-1.86-.03-2.79-.04-2.14-.15-4.05-.51-5.73-1.06-2.03-.68-3.87-1.56-5.51-2.64l-1.3-1.06c.81.3,1.78.62,2.92.97"/>
  <path class="st3" d="M73.92,106.5c-1.74.16-3.71.63-5.92,1.43-1.49.69-2.77,1.29-3.84,1.81-1.07.52-1.99.98-2.74,1.39l1.13-1.25c1.47-1.31,3.15-2.46,5.07-3.43,1.58-.81,3.42-1.44,5.51-1.91.92-.16,1.83-.31,2.75-.46.92-.15,1.83-.31,2.75-.46,3.59-.64,7.08-1.69,10.47-3.15-2.02,2.44-7.08,4.45-15.17,6.02"/>
  <path class="st3" d="M35.37,112.72c1.17.22,2.56.48,4.17.76,2.33.2,4.36.15,6.08-.14,8.22-.56,13.62.08,16.19,1.92-3.64-.53-7.28-.65-10.92-.35-.93.09-1.85.17-2.78.26-.92.09-1.85.17-2.77.26-2.14.08-4.08-.06-5.81-.43-2.09-.45-4.01-1.12-5.77-2.02l-1.4-.92c.84.21,1.84.42,3,.64"/>
  <path class="st3" d="M74.7,111.39c-1.72.35-3.62,1.04-5.73,2.07-1.4.85-2.61,1.59-3.62,2.22-1.01.63-1.87,1.19-2.57,1.69l.98-1.37c1.31-1.47,2.87-2.79,4.66-3.96,1.48-.97,3.24-1.81,5.27-2.5.89-.26,1.79-.51,2.68-.76.89-.25,1.79-.51,2.68-.76,3.5-1.03,6.86-2.46,10.06-4.28-1.74,2.65-6.55,5.2-14.42,7.65"/>
  <path class="st3" d="M37.06,121.81c1.18.09,2.6.19,4.23.3,2.34-.06,4.35-.33,6.03-.81,8.11-1.46,13.54-1.41,16.3.13-3.68-.13-7.31.15-10.89.85-.91.19-1.82.38-2.73.56-.91.19-1.82.38-2.73.57-2.12.32-4.06.39-5.82.21-2.13-.22-4.11-.68-5.95-1.37l-1.5-.76c.85.12,1.87.22,3.06.31"/>
  <path class="st3" d="M76.01,116.17c-1.67.54-3.49,1.43-5.46,2.69-1.3,1-2.42,1.87-3.36,2.6-.93.74-1.72,1.39-2.37,1.96l.83-1.46c1.14-1.6,2.54-3.09,4.2-4.45,1.37-1.13,3.02-2.15,4.96-3.07.86-.35,1.72-.7,2.58-1.05.86-.35,1.72-.7,2.59-1.05,3.37-1.41,6.54-3.2,9.53-5.35-1.44,2.82-5.94,5.88-13.49,9.19"/>
  <path class="st3" d="M39.74,130.65c1.19-.04,2.6-.09,4.24-.17,2.32-.32,4.29-.81,5.91-1.47,7.9-2.34,13.31-2.89,16.22-1.66-3.67.27-7.25.95-10.73,2.04-.88.29-1.77.57-2.65.86-.88.29-1.77.57-2.65.86-2.07.55-3.99.83-5.76.85-2.14.02-4.16-.22-6.07-.71l-1.57-.58c.86.02,1.88.01,3.07-.03"/>
  <path class="st3" d="M77.84,120.77c-1.6.72-3.31,1.8-5.14,3.27-1.18,1.14-2.2,2.12-3.05,2.96-.85.83-1.56,1.57-2.14,2.21l.66-1.54c.96-1.72,2.19-3.35,3.68-4.89,1.23-1.27,2.77-2.47,4.6-3.59.82-.44,1.64-.89,2.45-1.33.82-.44,1.64-.88,2.45-1.33,3.19-1.77,6.15-3.89,8.88-6.37-1.12,2.96-5.26,6.5-12.4,10.61"/>
  <path class="st3" d="M43.38,139.15c1.18-.17,2.58-.38,4.19-.63,2.27-.57,4.17-1.27,5.71-2.1,7.6-3.19,12.91-4.34,15.94-3.43-3.62.67-7.1,1.74-10.44,3.21-.84.38-1.69.76-2.54,1.14-.85.38-1.69.77-2.54,1.15-2,.77-3.88,1.27-5.64,1.48-2.13.25-4.16.24-6.11-.04l-1.63-.41c.86-.07,1.88-.2,3.05-.37"/>
  <path class="st3" d="M80.16,125.15c-1.51.89-3.09,2.16-4.75,3.81-1.05,1.26-1.95,2.35-2.7,3.27-.75.92-1.38,1.73-1.89,2.43l.49-1.61c.77-1.81,1.81-3.56,3.13-5.26,1.09-1.4,2.48-2.76,4.18-4.08.76-.53,1.53-1.06,2.29-1.59.76-.53,1.53-1.05,2.29-1.59,2.98-2.11,5.69-4.55,8.13-7.3-.79,3.07-4.51,7.04-11.16,11.91"/>
  <path class="st3" d="M47.92,147.2c1.15-.3,2.52-.66,4.1-1.09,2.19-.81,4.01-1.72,5.45-2.72,7.2-4.01,12.35-5.73,15.46-5.16-3.52,1.07-6.86,2.51-10.02,4.33-.8.47-1.6.94-2.4,1.42-.8.47-1.6.94-2.4,1.42-1.9.99-3.72,1.68-5.44,2.09-2.09.48-4.11.69-6.07.63l-1.66-.23c.85-.17,1.84-.4,2.99-.7"/>
  <path class="st3" d="M82.95,129.24c-1.4,1.05-2.84,2.48-4.3,4.31-.9,1.37-1.68,2.55-2.33,3.55-.64,1-1.18,1.87-1.61,2.62l.31-1.65c.57-1.89,1.41-3.75,2.53-5.57.93-1.51,2.16-3.01,3.7-4.51.7-.61,1.4-1.22,2.1-1.83.7-.61,1.4-1.22,2.1-1.83,2.73-2.43,5.16-5.14,7.28-8.15-.45,3.13-3.71,7.49-9.79,13.06"/>
  <path class="st3" d="M53.32,154.7c1.11-.42,2.43-.93,3.96-1.53,2.09-1.05,3.79-2.15,5.11-3.3,6.72-4.77,11.65-7.05,14.81-6.82-3.38,1.45-6.55,3.25-9.49,5.41-.74.56-1.49,1.12-2.23,1.67-.74.56-1.49,1.12-2.23,1.68-1.79,1.19-3.51,2.08-5.18,2.67-2.02.71-4.01,1.14-5.97,1.3l-1.68-.05c.82-.26,1.79-.6,2.9-1.02"/>
  <path class="st3" d="M86.17,133.01c-1.28,1.19-2.55,2.78-3.8,4.76-.75,1.46-1.39,2.72-1.93,3.78-.53,1.07-.97,1.99-1.31,2.78l.13-1.68c.35-1.94.99-3.88,1.9-5.81.76-1.6,1.82-3.24,3.19-4.89.63-.68,1.26-1.37,1.89-2.05.63-.68,1.26-1.37,1.89-2.05,2.45-2.71,4.56-5.68,6.34-8.9-.1,3.16-2.86,7.85-8.29,14.06"/>
  <path class="st3" d="M59.52,161.56c1.06-.54,2.31-1.19,3.76-1.95,1.96-1.27,3.53-2.55,4.72-3.84,6.15-5.48,10.81-8.28,13.97-8.41-3.2,1.81-6.15,3.95-8.84,6.42-.68.63-1.35,1.27-2.03,1.9-.68.64-1.35,1.27-2.03,1.91-1.64,1.38-3.26,2.45-4.86,3.22-1.93.93-3.86,1.58-5.79,1.94l-1.67.14c.79-.35,1.71-.79,2.77-1.33"/>
  <path class="st3" d="M89.78,136.4c-1.14,1.33-2.23,3.04-3.26,5.15-.59,1.53-1.09,2.85-1.5,3.97-.41,1.12-.74,2.09-1,2.91l-.06-1.68c.14-1.96.56-3.96,1.25-5.99.58-1.68,1.45-3.41,2.63-5.21.55-.75,1.1-1.5,1.65-2.25.55-.74,1.1-1.49,1.65-2.24,2.13-2.96,3.91-6.14,5.33-9.54.24,3.16-1.99,8.12-6.7,14.88"/>
  <path class="st3" d="M66.43,167.7c.99-.66,2.17-1.44,3.53-2.36,1.81-1.48,3.23-2.93,4.27-4.34,5.51-6.12,9.83-9.42,12.96-9.89-2.99,2.15-5.68,4.6-8.08,7.35-.6.71-1.21,1.41-1.81,2.12-.61.71-1.21,1.41-1.81,2.12-1.48,1.55-2.97,2.8-4.47,3.74-1.82,1.13-3.66,1.99-5.54,2.57l-1.65.32c.74-.43,1.61-.98,2.6-1.63"/>
  <path class="st3" d="M93.74,139.37c-.99,1.44-1.88,3.27-2.67,5.47-.41,1.59-.77,2.96-1.05,4.11-.29,1.15-.51,2.15-.67,3l-.24-1.67c-.08-1.97.12-4,.59-6.09.39-1.73,1.07-3.55,2.04-5.47.46-.8.93-1.61,1.39-2.41.47-.8.93-1.61,1.4-2.41,1.8-3.18,3.21-6.53,4.25-10.07.59,3.11-1.08,8.29-5.03,15.53"/>
  <path class="st3" d="M73.97,173.04c.92-.76,2-1.67,3.25-2.73,1.64-1.67,2.89-3.26,3.77-4.78,4.81-6.69,8.74-10.44,11.8-11.25-2.73,2.47-5.14,5.19-7.22,8.19-.52.77-1.04,1.54-1.57,2.3-.52.77-1.04,1.54-1.57,2.3-1.3,1.7-2.65,3.11-4.04,4.21-1.68,1.33-3.42,2.38-5.23,3.16l-1.6.5c.69-.51,1.49-1.15,2.41-1.91"/>
  <path class="st3" d="M98.01,141.88c-.82,1.54-1.51,3.45-2.05,5.73-.24,1.62-.44,3.02-.6,4.2-.16,1.18-.27,2.2-.34,3.06l-.42-1.63c-.29-1.95-.32-3.99-.08-6.12.19-1.76.67-3.65,1.43-5.66.37-.85.75-1.7,1.12-2.55.38-.85.75-1.7,1.12-2.55,1.44-3.36,2.48-6.85,3.12-10.48.93,3.03-.17,8.36-3.29,15.99"/>
  <path class="st3" d="M82.05,177.53c.83-.86,1.8-1.88,2.93-3.07,1.44-1.84,2.52-3.56,3.22-5.16,4.05-7.18,7.54-11.34,10.49-12.48-2.44,2.75-4.54,5.73-6.28,8.93-.43.82-.87,1.64-1.3,2.46-.43.82-.87,1.64-1.3,2.46-1.11,1.84-2.29,3.38-3.55,4.62-1.53,1.5-3.14,2.74-4.85,3.71l-1.54.67c.63-.59,1.36-1.3,2.19-2.16"/>
  <path class="st3" d="M102.52,143.92c-.65,1.63-1.12,3.6-1.41,5.92-.06,1.64-.1,3.05-.13,4.25-.03,1.19-.03,2.21,0,3.08l-.6-1.57c-.51-1.9-.76-3.93-.76-6.07,0-1.77.27-3.7.8-5.78.28-.89.56-1.77.83-2.66.28-.88.56-1.77.84-2.66,1.06-3.49,1.71-7.08,1.95-10.75,1.26,2.91.75,8.32-1.52,16.25"/>
  <path class="st3" d="M90.57,181.1c.73-.94,1.58-2.07,2.57-3.37,1.23-1.99,2.11-3.81,2.64-5.49,3.23-7.58,6.25-12.1,9.06-13.55-2.13,3-3.89,6.19-5.26,9.57-.34.86-.68,1.73-1.03,2.59-.34.87-.69,1.73-1.03,2.59-.9,1.95-1.9,3.61-3.02,4.99-1.35,1.66-2.82,3.07-4.41,4.22l-1.45.84c.57-.65,1.21-1.45,1.94-2.39"/>
  <path class="st3" d="M107.24,145.44c-.47,1.69-.72,3.7-.76,6.04.12,1.63.23,3.05.33,4.23.1,1.18.22,2.2.34,3.06l-.77-1.49c-.71-1.84-1.18-3.82-1.42-5.95-.19-1.77-.14-3.71.16-5.84.18-.91.36-1.82.54-2.73.18-.91.36-1.82.54-2.74.67-3.59.92-7.22.76-10.9,1.57,2.75,1.66,8.19.27,16.32"/>
  <path class="st3" d="M99.44,183.71c.62-1.02,1.35-2.23,2.19-3.63,1.01-2.11,1.68-4.03,2.02-5.74,2.38-7.89,4.89-12.71,7.51-14.47-1.79,3.22-3.18,6.58-4.18,10.09-.24.89-.49,1.79-.73,2.69-.25.9-.49,1.79-.73,2.69-.68,2.03-1.5,3.79-2.46,5.29-1.16,1.8-2.47,3.36-3.92,4.68l-1.35.99c.49-.71,1.04-1.57,1.66-2.58"/>
  <path class="st3" d="M112.09,146.44c-.28,1.73-.31,3.76-.09,6.09.3,1.61.57,3,.8,4.17.23,1.17.46,2.17.67,3l-.93-1.4c-.91-1.75-1.6-3.67-2.06-5.76-.39-1.73-.55-3.67-.48-5.82.08-.93.16-1.85.24-2.78.08-.92.16-1.85.24-2.78.27-3.64.12-7.28-.45-10.92,1.86,2.57,2.55,7.96,2.07,16.19"/>
  <path class="st3" d="M108.54,185.34c.51-1.08,1.1-2.36,1.77-3.85.77-2.21,1.23-4.18,1.38-5.93,1.5-8.11,3.46-13.17,5.88-15.21-1.42,3.39-2.44,6.89-3.05,10.49-.14.92-.29,1.84-.44,2.75-.14.92-.29,1.84-.43,2.75-.45,2.1-1.07,3.94-1.86,5.52-.95,1.92-2.08,3.61-3.38,5.09l-1.24,1.14c.41-.76.87-1.68,1.37-2.75"/>
  <path class="st3" d="M117.02,146.9c-.09,1.75.11,3.77.58,6.06.48,1.57.89,2.92,1.25,4.06.36,1.14.69,2.1,1,2.91l-1.08-1.29c-1.1-1.64-1.99-3.47-2.68-5.5-.57-1.68-.95-3.59-1.12-5.73-.02-.93-.05-1.86-.07-2.79-.02-.93-.04-1.86-.07-2.79-.13-3.65-.68-7.25-1.64-10.81,2.13,2.34,3.4,7.63,3.83,15.87"/>
  <path class="st3" d="M117.76,185.95c.38-1.13.83-2.47,1.34-4.03.52-2.28.76-4.29.72-6.04.6-8.22,1.99-13.47,4.18-15.76-1.04,3.53-1.67,7.11-1.88,10.76-.04.93-.09,1.85-.13,2.78-.04.93-.09,1.86-.13,2.78-.22,2.13-.63,4.03-1.24,5.7-.74,2.01-1.68,3.82-2.8,5.42l-1.1,1.27c.32-.8.68-1.76,1.06-2.89"/>
  <path class="st3" d="M121.97,146.82c.11,1.75.52,3.73,1.24,5.96.64,1.51,1.21,2.81,1.69,3.9.48,1.09.92,2.02,1.31,2.78l-1.21-1.17c-1.27-1.5-2.36-3.23-3.27-5.17-.76-1.6-1.33-3.46-1.74-5.57-.13-.92-.25-1.84-.38-2.76s-.25-1.84-.37-2.76c-.53-3.61-1.47-7.13-2.82-10.56,2.38,2.09,4.23,7.21,5.55,15.35"/>
  <path class="st3" d="M126.99,185.55c.26-1.16.56-2.54.89-4.15.27-2.32.28-4.35.05-6.09-.3-8.24.51-13.61,2.42-16.12-.65,3.62-.88,7.25-.69,10.9.06.93.12,1.85.17,2.78.06.93.12,1.85.18,2.78.02,2.15-.19,4.08-.61,5.8-.52,2.08-1.25,3.98-2.19,5.7l-.96,1.38c.23-.83.48-1.82.74-2.98"/>
  <path class="st3" d="M126.89,146.2c.3,1.73.93,3.65,1.89,5.79.81,1.43,1.51,2.66,2.11,3.69.6,1.03,1.13,1.9,1.61,2.62l-1.33-1.03c-1.43-1.36-2.7-2.95-3.82-4.78-.93-1.51-1.7-3.29-2.34-5.35-.23-.9-.45-1.8-.68-2.7-.22-.9-.45-1.8-.68-2.7-.92-3.53-2.24-6.93-3.96-10.19,2.59,1.82,4.99,6.71,7.2,14.65"/>
  <path class="st3" d="M136.13,184.14c.13-1.18.27-2.59.43-4.22.01-2.34-.19-4.36-.62-6.05-1.2-8.15-.99-13.58.64-16.29-.24,3.67-.08,7.31.51,10.91.16.92.32,1.83.48,2.74.16.92.32,1.83.48,2.75.25,2.13.26,4.07.03,5.83-.28,2.12-.8,4.09-1.55,5.91l-.8,1.48c.14-.85.28-1.87.41-3.05"/>
  <path class="st3" d="M131.7,145.03c.48,1.68,1.32,3.53,2.52,5.55.96,1.33,1.79,2.48,2.5,3.43.71.96,1.33,1.77,1.89,2.43l-1.44-.87c-1.57-1.19-3-2.64-4.32-4.33-1.09-1.4-2.06-3.09-2.91-5.06-.32-.87-.65-1.74-.97-2.61-.32-.87-.64-1.74-.97-2.62-1.3-3.41-2.99-6.64-5.05-9.69,2.77,1.53,5.7,6.12,8.76,13.77"/>
  <path class="st3" d="M145.05,181.74c0-1.19-.01-2.6-.03-4.24-.24-2.33-.67-4.31-1.28-5.95-2.09-7.97-2.48-13.39-1.15-16.26.16,3.68.73,7.27,1.71,10.79.26.89.52,1.78.78,2.68.26.89.52,1.78.78,2.68.48,2.09.71,4.02.67,5.79-.05,2.14-.35,4.15-.9,6.04l-.63,1.55c.05-.86.07-1.88.07-3.07"/>
  <path class="st3" d="M136.36,143.35c.67,1.62,1.7,3.36,3.11,5.24,1.1,1.22,2.05,2.27,2.86,3.14.81.87,1.52,1.61,2.14,2.21l-1.52-.71c-1.69-1.02-3.28-2.29-4.77-3.83-1.23-1.28-2.38-2.84-3.45-4.71-.42-.83-.83-1.66-1.25-2.49-.41-.83-.83-1.66-1.25-2.49-1.67-3.25-3.7-6.27-6.09-9.08,2.93,1.22,6.33,5.46,10.22,12.73"/>
  <path class="st3" d="M153.66,178.37c-.13-1.18-.3-2.59-.5-4.21-.5-2.28-1.14-4.21-1.93-5.77-2.95-7.69-3.93-13.04-2.93-16.04.56,3.64,1.52,7.15,2.88,10.54.36.86.71,1.72,1.07,2.57.36.86.71,1.72,1.07,2.58.71,2.02,1.14,3.91,1.3,5.68.19,2.13.11,4.17-.23,6.1l-.46,1.62c-.05-.86-.14-1.88-.27-3.06"/>
  <path class="st3" d="M140.81,141.17c.84,1.54,2.06,3.16,3.66,4.86,1.23,1.09,2.29,2.03,3.19,2.8.9.78,1.69,1.43,2.37,1.96l-1.59-.54c-1.79-.82-3.51-1.92-5.16-3.29-1.37-1.13-2.68-2.56-3.95-4.3-.51-.78-1.01-1.56-1.52-2.34-.51-.78-1.01-1.56-1.52-2.34-2.02-3.04-4.37-5.83-7.05-8.36,3.04.89,6.89,4.73,11.56,11.53"/>
  <path class="st3" d="M161.84,174.07c-.26-1.16-.58-2.54-.96-4.13-.74-2.22-1.59-4.06-2.55-5.53-3.78-7.32-5.34-12.53-4.67-15.62.95,3.55,2.29,6.94,4.02,10.15.45.81.89,1.63,1.34,2.44.45.81.89,1.63,1.34,2.44.93,1.93,1.57,3.77,1.92,5.5.42,2.1.57,4.13.44,6.09l-.28,1.65c-.14-.85-.34-1.85-.61-3.01"/>
  <path class="st3" d="M144.98,138.51c1,1.43,2.39,2.91,4.18,4.43,1.34.95,2.5,1.76,3.48,2.44.98.68,1.84,1.24,2.57,1.69l-1.64-.36c-1.87-.62-3.7-1.52-5.49-2.7-1.48-.98-2.95-2.25-4.39-3.84-.59-.72-1.18-1.44-1.77-2.16-.59-.72-1.18-1.44-1.76-2.16-2.34-2.8-4.98-5.31-7.92-7.53,3.12.55,7.37,3.94,12.75,10.19"/>
  <path class="st3" d="M169.51,168.91c-.39-1.12-.86-2.46-1.41-4-.98-2.12-2.03-3.86-3.14-5.21-4.56-6.86-6.68-11.86-6.36-15.01,1.34,3.43,3.04,6.64,5.11,9.65.53.76,1.07,1.52,1.6,2.28.53.76,1.07,1.52,1.6,2.28,1.14,1.82,1.97,3.57,2.51,5.26.65,2.04,1.02,4.05,1.11,6.01l-.1,1.68c-.23-.83-.54-1.8-.93-2.93"/>
  <path class="st3" d="M148.85,135.41c1.15,1.32,2.7,2.63,4.64,3.95,1.43.8,2.68,1.48,3.72,2.04,1.05.57,1.96,1.03,2.74,1.4l-1.67-.18c-1.93-.41-3.84-1.1-5.75-2.08-1.58-.81-3.18-1.92-4.79-3.33-.66-.65-1.33-1.3-1.99-1.95-.66-.65-1.33-1.3-1.99-1.95-2.63-2.53-5.53-4.74-8.7-6.62,3.16.2,7.76,3.11,13.79,8.73"/>
  <path class="st3" d="M176.56,162.93c-.51-1.07-1.12-2.35-1.84-3.82-1.21-2-2.44-3.61-3.69-4.84-5.29-6.32-7.94-11.06-7.97-14.22,1.71,3.26,3.75,6.27,6.14,9.03.61.7,1.23,1.39,1.84,2.09.62.7,1.23,1.39,1.85,2.09,1.33,1.68,2.35,3.33,3.07,4.95.87,1.96,1.45,3.91,1.76,5.85l.09,1.68c-.32-.8-.74-1.74-1.25-2.81"/>
  <path class="st3" d="M152.34,131.9c1.29,1.18,2.97,2.32,5.04,3.41,1.51.63,2.82,1.17,3.93,1.62,1.1.44,2.06.81,2.88,1.09h-1.68c-1.96-.19-3.94-.67-5.95-1.43-1.66-.63-3.37-1.55-5.12-2.79-.73-.57-1.46-1.15-2.19-1.72-.73-.58-1.46-1.15-2.19-1.73-2.89-2.22-6.02-4.1-9.37-5.62,3.16-.15,8.05,2.24,14.67,7.16"/>
  <path class="st3" d="M182.91,156.21c-.62-1.01-1.37-2.21-2.25-3.6-1.42-1.85-2.82-3.32-4.2-4.4-5.95-5.7-9.11-10.12-9.48-13.26,2.05,3.05,4.42,5.82,7.09,8.31.69.63,1.37,1.25,2.06,1.88.69.63,1.38,1.25,2.07,1.87,1.5,1.53,2.7,3.06,3.6,4.59,1.08,1.85,1.87,3.72,2.39,5.62l.27,1.65c-.41-.76-.92-1.64-1.55-2.65"/>
  <path class="st3" d="M155.44,128.03c1.41,1.03,3.21,1.98,5.39,2.84,1.57.46,2.93.86,4.08,1.18,1.14.32,2.14.58,2.98.77l-1.67.19c-1.97.02-3.99-.24-6.07-.78-1.72-.44-3.52-1.18-5.4-2.21-.79-.49-1.58-.98-2.37-1.47-.79-.49-1.58-.98-2.37-1.47-3.12-1.89-6.43-3.41-9.93-4.56,3.13-.49,8.25,1.34,15.37,5.51"/>
  <path class="st3" d="M188.48,148.84c-.73-.94-1.61-2.05-2.63-3.33-1.62-1.69-3.17-2.99-4.66-3.91-6.54-5.01-10.17-9.06-10.88-12.14,2.38,2.81,5.03,5.3,7.96,7.48.75.54,1.5,1.09,2.25,1.64.75.55,1.5,1.09,2.26,1.64,1.67,1.35,3.02,2.74,4.08,4.16,1.27,1.72,2.27,3.5,3,5.32l.45,1.62c-.49-.71-1.1-1.53-1.83-2.47"/>
  <path class="st3" d="M158.09,123.84c1.52.87,3.4,1.62,5.66,2.23,1.62.29,3.01.53,4.19.73,1.17.19,2.19.34,3.05.43l-1.64.37c-1.95.23-3.99.2-6.12-.11-1.75-.25-3.63-.79-5.61-1.6-.84-.4-1.68-.8-2.52-1.2-.84-.4-1.68-.8-2.52-1.2-3.31-1.54-6.77-2.69-10.37-3.44,3.05-.83,8.35.43,15.88,3.79"/>
  <path class="st3" d="M193.22,140.9c-.83-.85-1.82-1.86-2.98-3.02-1.79-1.5-3.48-2.63-5.06-3.38-7.05-4.27-11.1-7.89-12.15-10.87,2.67,2.53,5.58,4.72,8.73,6.56.81.46,1.62.92,2.42,1.38.81.46,1.62.92,2.42,1.38,1.8,1.16,3.3,2.39,4.51,3.69,1.45,1.57,2.64,3.23,3.56,4.96l.63,1.56c-.57-.65-1.26-1.4-2.09-2.25"/>
  <path class="st3" d="M160.26,119.39c1.6.7,3.56,1.23,5.87,1.6,1.64.11,3.05.2,4.24.26,1.19.07,2.22.1,3.08.1l-1.59.55c-1.92.45-3.95.64-6.09.57-1.77-.06-3.69-.38-5.75-.98-.88-.31-1.75-.61-2.63-.92-.88-.31-1.75-.62-2.63-.92-3.46-1.17-7.02-1.93-10.69-2.28,2.95-1.17,8.34-.49,16.2,2.02"/>
  <path class="st3" d="M197.05,132.49c-.92-.76-2.02-1.65-3.29-2.68-1.95-1.29-3.75-2.23-5.4-2.8-7.48-3.47-11.9-6.62-13.27-9.47,2.93,2.22,6.07,4.08,9.4,5.56.85.37,1.7.74,2.55,1.11.85.37,1.71.74,2.56,1.1,1.92.96,3.55,2.02,4.89,3.17,1.62,1.4,2.98,2.91,4.09,4.54l.79,1.48c-.63-.58-1.41-1.25-2.33-2.01"/>
  <path class="st3" d="M161.93,114.73c1.67.52,3.68.83,6.02.94,1.64-.07,3.05-.14,4.24-.2,1.19-.07,2.21-.15,3.07-.24l-1.52.72c-1.86.65-3.86,1.06-5.99,1.23-1.77.14-3.71.03-5.83-.34-.9-.21-1.81-.42-2.71-.62-.9-.21-1.81-.42-2.72-.63-3.57-.78-7.19-1.14-10.88-1.09,2.8-1.48,8.24-1.4,16.32.23"/>
  <path class="st3" d="M199.94,123.71c-.99-.65-2.18-1.42-3.56-2.3-2.08-1.07-3.97-1.8-5.67-2.19-7.81-2.63-12.55-5.28-14.23-7.96,3.16,1.88,6.48,3.38,9.95,4.49.89.27,1.78.54,2.66.82.89.27,1.78.55,2.66.82,2.01.74,3.75,1.61,5.21,2.62,1.76,1.22,3.28,2.57,4.56,4.06l.95,1.38c-.69-.51-1.54-1.09-2.53-1.74"/>
  <path class="st3" d="M163.08,109.91c1.72.33,3.74.42,6.08.28,1.62-.25,3.02-.47,4.19-.67,1.17-.19,2.18-.39,3.02-.58l-1.43.88c-1.77.86-3.71,1.48-5.82,1.88-1.74.33-3.69.43-5.83.3-.92-.11-1.84-.22-2.77-.32-.92-.11-1.85-.22-2.77-.33-3.63-.38-7.27-.35-10.93.11,2.62-1.78,8.03-2.3,16.25-1.56"/>
  <path class="st3" d="M201.84,114.67c-1.06-.54-2.33-1.17-3.8-1.89-2.18-.84-4.14-1.36-5.88-1.56-8.05-1.75-13.06-3.87-15.02-6.35,3.35,1.53,6.81,2.65,10.39,3.38.91.17,1.83.35,2.74.52.91.17,1.83.35,2.74.52,2.08.52,3.9,1.19,5.46,2.03,1.89,1.02,3.55,2.2,4.98,3.54l1.1,1.27c-.74-.43-1.65-.92-2.71-1.45"/>
  <path class="st3" d="M163.69,105c1.74.14,3.77.01,6.08-.39,1.58-.43,2.95-.8,4.09-1.13,1.14-.32,2.13-.62,2.94-.9l-1.32,1.04c-1.67,1.04-3.53,1.88-5.58,2.51-1.7.52-3.61.83-5.76.94-.93,0-1.86-.01-2.79-.02-.93,0-1.86-.01-2.79-.02-3.65.02-7.27.45-10.85,1.3,2.41-2.05,7.73-3.17,15.98-3.33"/>
  <path class="st3" d="M202.75,105.47c-1.11-.42-2.44-.91-3.98-1.47-2.26-.59-4.27-.89-6.02-.9-8.2-.86-13.4-2.41-15.62-4.66,3.49,1.15,7.06,1.89,10.69,2.21.93.07,1.85.15,2.78.22.93.07,1.85.15,2.78.22,2.13.29,4.01.76,5.65,1.42,1.99.8,3.76,1.79,5.34,2.97l1.23,1.14c-.79-.35-1.74-.73-2.85-1.15"/>
  <path class="st3" d="M163.77,100.05c1.75-.05,3.75-.4,6-1.06,1.53-.6,2.84-1.12,3.95-1.57,1.1-.45,2.04-.85,2.82-1.22l-1.2,1.18c-1.54,1.22-3.3,2.25-5.27,3.11-1.63.7-3.5,1.23-5.62,1.56-.93.1-1.85.19-2.77.29-.92.09-1.85.19-2.78.29-3.63.42-7.17,1.25-10.64,2.49,2.17-2.31,7.34-4,15.52-5.07"/>
  <path class="st3" d="M202.63,96.23c-1.15-.29-2.53-.63-4.12-1.02-2.31-.34-4.34-.42-6.08-.24-8.24.05-13.59-.93-16.04-2.92,3.6.76,7.22,1.1,10.87,1.03.93-.03,1.86-.06,2.79-.09.93-.03,1.86-.06,2.79-.09,2.14.05,4.07.31,5.77.79,2.06.58,3.94,1.37,5.63,2.37l1.35,1c-.82-.26-1.81-.53-2.96-.83"/>
  <path class="st3" d="M163.29,95.12c1.73-.24,3.68-.81,5.84-1.71,1.45-.76,2.7-1.43,3.75-1.99,1.05-.57,1.94-1.07,2.67-1.53l-1.07,1.3c-1.4,1.38-3.04,2.61-4.9,3.67-1.54.88-3.35,1.6-5.42,2.17-.9.2-1.82.39-2.72.59-.91.19-1.82.39-2.73.59-3.56.81-7,2.03-10.3,3.64,1.9-2.53,6.86-4.78,14.87-6.74"/>
  <path class="st3" d="M201.51,87.06c-1.18-.17-2.58-.35-4.2-.56-2.34-.09-4.36.06-6.07.43-8.19.95-13.61.57-16.26-1.14,3.66.36,7.3.31,10.92-.17.92-.13,1.84-.26,2.76-.39.92-.13,1.84-.26,2.76-.4,2.14-.18,4.08-.13,5.83.15,2.11.35,4.06.93,5.86,1.74l1.45.85c-.85-.17-1.86-.33-3.03-.5"/>
  <path class="st3" d="M162.28,90.27c1.7-.43,3.57-1.21,5.62-2.34,1.36-.92,2.53-1.71,3.51-2.39.98-.68,1.81-1.28,2.49-1.81l-.92,1.41c-1.24,1.53-2.73,2.92-4.46,4.18-1.44,1.04-3.15,1.96-5.15,2.75-.88.3-1.76.59-2.64.89-.88.29-1.76.59-2.64.89-3.45,1.2-6.73,2.78-9.84,4.75,1.61-2.73,6.29-5.5,14.04-8.33"/>
  <path class="st3" d="M199.38,78.06c-1.19-.03-2.6-.07-4.24-.1-2.33.17-4.33.54-5.99,1.09-8.03,1.85-13.46,2.06-16.29.65,3.68-.04,7.29-.5,10.84-1.37.9-.23,1.8-.46,2.7-.69.9-.23,1.8-.46,2.7-.7,2.1-.42,4.04-.58,5.81-.49,2.14.12,4.14.48,6.01,1.08l1.53.68c-.86-.07-1.88-.13-3.07-.16"/>
  <path class="st3" d="M160.74,85.56c1.64-.62,3.41-1.59,5.33-2.94,1.25-1.06,2.33-1.98,3.23-2.76.9-.78,1.65-1.47,2.27-2.07l-.76,1.5c-1.07,1.65-2.39,3.2-3.98,4.65-1.31,1.19-2.91,2.29-4.81,3.3-.84.39-1.69.78-2.53,1.17-.84.39-1.69.78-2.53,1.17-3.3,1.57-6.38,3.5-9.26,5.8,1.3-2.89,5.65-6.16,13.04-9.82"/>
  <path class="st3" d="M196.28,69.36c-1.18.09-2.59.22-4.23.37-2.3.43-4.24,1.01-5.83,1.75-7.78,2.71-13.15,3.53-16.12,2.43,3.65-.45,7.19-1.3,10.62-2.55.87-.33,1.74-.66,2.61-.99.87-.33,1.74-.66,2.61-.99,2.04-.65,3.95-1.02,5.72-1.12,2.14-.12,4.17.02,6.1.42l1.6.51c-.86.02-1.88.08-3.07.17"/>
  <path class="st3" d="M158.7,81.05c1.56-.79,3.22-1.96,4.97-3.51,1.13-1.19,2.1-2.23,2.9-3.1s1.48-1.64,2.03-2.31l-.59,1.58c-.88,1.76-2.03,3.45-3.45,5.06-1.17,1.33-2.64,2.6-4.42,3.81-.79.48-1.59.96-2.38,1.44-.8.48-1.59.96-2.39,1.44-3.1,1.92-5.96,4.18-8.57,6.78.98-3.01,4.94-6.74,11.88-11.19"/>
  <path class="st3" d="M192.24,61.04c-1.17.23-2.55.5-4.16.83-2.24.67-4.11,1.47-5.6,2.37-7.43,3.55-12.69,4.95-15.75,4.19,3.58-.84,7.01-2.08,10.27-3.7.83-.42,1.65-.84,2.48-1.27.83-.42,1.65-.84,2.48-1.27,1.96-.87,3.81-1.45,5.56-1.74,2.11-.36,4.15-.44,6.1-.26l1.64.33c-.86.12-1.86.28-3.03.51"/>
  <path class="st3" d="M156.17,76.79c1.47-.96,2.98-2.3,4.56-4.04.99-1.31,1.84-2.44,2.55-3.4.71-.95,1.3-1.79,1.77-2.52l-.41,1.63c-.68,1.85-1.64,3.65-2.87,5.4-1.02,1.45-2.34,2.88-3.98,4.27-.74.57-1.47,1.13-2.21,1.7-.74.56-1.48,1.13-2.22,1.69-2.88,2.25-5.47,4.81-7.77,7.68.64-3.1,4.17-7.25,10.58-12.43"/>
  <path class="st3" d="M187.31,53.22c-1.14.35-2.48.78-4.04,1.28-2.15.92-3.92,1.91-5.31,2.97-7,4.35-12.07,6.31-15.2,5.89,3.46-1.23,6.73-2.84,9.8-4.81.78-.51,1.55-1.02,2.33-1.53.78-.51,1.55-1.02,2.33-1.53,1.85-1.08,3.63-1.86,5.34-2.34,2.06-.58,4.08-.89,6.04-.92l1.67.15c-.84.21-1.82.49-2.96.84"/>
  <path class="st3" d="M153.19,72.83c1.35-1.11,2.71-2.62,4.09-4.51.84-1.41,1.56-2.63,2.16-3.66.6-1.03,1.09-1.93,1.48-2.7l-.23,1.67c-.47,1.91-1.22,3.81-2.26,5.69-.86,1.55-2.02,3.11-3.48,4.68-.67.64-1.34,1.29-2.01,1.93-.67.64-1.34,1.29-2.02,1.93-2.61,2.55-4.9,5.39-6.88,8.49.3-3.15,3.35-7.66,9.15-13.52"/>
  <path class="st3" d="M181.56,45.99c-1.09.47-2.38,1.05-3.88,1.72-2.04,1.15-3.69,2.33-4.95,3.54-6.48,5.09-11.3,7.6-14.46,7.52,3.31-1.61,6.38-3.56,9.22-5.86.72-.59,1.43-1.18,2.15-1.78s1.43-1.18,2.14-1.78c1.73-1.28,3.41-2.25,5.05-2.92,1.98-.81,3.95-1.33,5.9-1.58l1.68-.04c-.81.3-1.76.69-2.85,1.16"/>
  <path class="st3" d="M149.79,69.23c1.22-1.25,2.41-2.9,3.57-4.93.68-1.49,1.26-2.78,1.74-3.87.48-1.09.87-2.04,1.18-2.84l-.05,1.68c-.26,1.95-.8,3.92-1.62,5.9-.68,1.64-1.66,3.32-2.95,5.04-.6.71-1.19,1.43-1.79,2.14-.6.71-1.19,1.42-1.79,2.14-2.31,2.83-4.28,5.89-5.91,9.2-.05-3.17,2.49-7.98,7.61-14.44"/>
  <path class="st3" d="M175.04,39.43c-1.03.59-2.25,1.3-3.66,2.13-1.9,1.36-3.41,2.72-4.53,4.06-5.88,5.77-10.4,8.79-13.55,9.07,3.11-1.96,5.96-4.24,8.52-6.83.65-.67,1.29-1.34,1.94-2,.65-.67,1.29-1.34,1.94-2,1.58-1.46,3.14-2.61,4.7-3.45,1.88-1.02,3.78-1.76,5.69-2.22l1.67-.22c-.77.39-1.67.87-2.7,1.47"/>
  <path class="st3" d="M146.02,66.01c1.08-1.38,2.08-3.14,3.01-5.3.51-1.56.95-2.9,1.31-4.04.36-1.13.64-2.12.86-2.96l.14,1.68c-.04,1.97-.37,3.98-.97,6.04-.49,1.7-1.29,3.48-2.38,5.33-.51.77-1.03,1.55-1.54,2.32-.52.77-1.03,1.55-1.54,2.32-1.99,3.06-3.61,6.32-4.86,9.79-.4-3.14,1.6-8.21,5.98-15.19"/>
  <path class="st3" d="M167.85,33.63c-.96.7-2.1,1.54-3.41,2.52-1.74,1.56-3.09,3.08-4.06,4.54-5.22,6.38-9.37,9.88-12.47,10.5,2.88-2.29,5.45-4.86,7.72-7.72.57-.73,1.14-1.47,1.71-2.2.57-.73,1.14-1.47,1.71-2.2,1.4-1.62,2.83-2.94,4.29-3.95,1.76-1.22,3.56-2.17,5.41-2.83l1.63-.4c-.73.47-1.57,1.05-2.53,1.75"/>
  <path class="st3" d="M141.92,63.24c.92-1.49,1.72-3.35,2.41-5.59.34-1.6.62-2.99.86-4.16.23-1.17.41-2.18.53-3.03l.32,1.65c.17,1.96.07,4-.29,6.11-.31,1.75-.9,3.6-1.78,5.56-.43.82-.85,1.65-1.28,2.48-.43.82-.86,1.65-1.28,2.48-1.64,3.26-2.9,6.68-3.76,10.26-.74-3.08.69-8.33,4.28-15.75"/>
  <path class="st3" d="M160.06,28.65c-.88.8-1.92,1.76-3.11,2.88-1.55,1.74-2.73,3.4-3.54,4.95-4.48,6.91-8.23,10.85-11.24,11.8,2.61-2.59,4.89-5.43,6.83-8.53.48-.79.97-1.58,1.45-2.38.48-.79.97-1.59,1.45-2.38,1.22-1.77,2.49-3.23,3.83-4.39,1.62-1.41,3.3-2.54,5.07-3.41l1.58-.58c-.67.54-1.44,1.22-2.32,2.02"/>
  <path class="st3" d="M137.54,60.93c.75-1.58,1.34-3.52,1.78-5.82.16-1.63.29-3.04.39-4.23.1-1.18.17-2.21.19-3.07l.5,1.6c.39,1.93.51,3.97.38,6.11-.11,1.77-.49,3.68-1.15,5.72-.33.87-.67,1.74-1,2.6-.34.87-.67,1.73-1,2.6-1.27,3.42-2.14,6.96-2.61,10.61-1.07-2.98-.23-8.36,2.53-16.13"/>
  <path class="st3" d="M151.78,24.56c-.78.89-1.71,1.96-2.78,3.21-1.35,1.9-2.35,3.68-2.97,5.31-3.7,7.37-6.99,11.69-9.88,12.97,2.31-2.86,4.26-5.94,5.85-9.22.39-.84.79-1.68,1.18-2.52.39-.84.79-1.68,1.18-2.53,1.02-1.89,2.13-3.48,3.33-4.79,1.45-1.58,3.01-2.89,4.66-3.94l1.5-.75c-.61.62-1.3,1.37-2.08,2.26"/>
  <path class="st3" d="M132.93,59.11c.57-1.65.95-3.65,1.13-5.98-.02-1.64-.04-3.06-.07-4.25-.03-1.19-.08-2.22-.15-3.08l.68,1.54c.59,1.88.94,3.89,1.04,6.03.08,1.77-.09,3.71-.52,5.81-.24.9-.47,1.8-.71,2.7-.24.9-.47,1.8-.71,2.69-.89,3.54-1.37,7.15-1.43,10.84-1.39-2.84-1.15-8.28.74-16.31"/>
  <path class="st3" d="M143.09,21.4c-.68.97-1.48,2.14-2.41,3.49-1.14,2.04-1.93,3.91-2.37,5.61-2.87,7.73-5.67,12.38-8.4,13.97,1.98-3.1,3.58-6.37,4.8-9.81.3-.88.6-1.76.9-2.64.3-.88.6-1.76.9-2.64.81-1.99,1.73-3.7,2.78-5.12,1.27-1.73,2.67-3.2,4.2-4.43l1.41-.91c-.53.68-1.14,1.5-1.82,2.48"/>
  <path class="st3" d="M128.15,57.81c.38-1.71.54-3.73.47-6.07-.2-1.63-.38-3.03-.54-4.21-.16-1.18-.32-2.19-.48-3.04l.84,1.46c.8,1.8,1.37,3.76,1.7,5.88.28,1.75.32,3.7.12,5.83-.13.92-.27,1.84-.41,2.76-.14.92-.27,1.84-.41,2.76-.49,3.62-.57,7.26-.23,10.93-1.7-2.68-2.05-8.1-1.05-16.29"/>
  <path class="st3" d="M134.11,19.21c-.57,1.04-1.24,2.29-2.01,3.74-.91,2.15-1.49,4.1-1.74,5.83-2,7.99-4.27,12.93-6.81,14.81,1.63-3.3,2.86-6.72,3.69-10.28.2-.9.41-1.81.61-2.72.2-.9.4-1.81.6-2.72.58-2.07,1.32-3.86,2.2-5.4,1.07-1.85,2.3-3.47,3.69-4.86l1.3-1.05c-.46.73-.97,1.62-1.54,2.66"/>
  <path class="st3" d="M123.26,57.05c.19-1.74.13-3.77-.21-6.09-.38-1.6-.71-2.97-.99-4.13-.29-1.15-.56-2.14-.81-2.97l.99,1.35c.99,1.7,1.77,3.59,2.33,5.66.47,1.71.72,3.64.76,5.79-.03.93-.07,1.86-.1,2.79-.04.93-.07,1.86-.11,2.79-.1,3.65.23,7.28.97,10.89-1.98-2.47-2.93-7.83-2.84-16.07"/>
  <path class="st3" d="M124.94,18.03c-.45,1.1-.98,2.41-1.59,3.93-.66,2.24-1.03,4.24-1.09,5.99-1.11,8.17-2.83,13.32-5.15,15.47,1.26-3.46,2.11-7,2.54-10.62.1-.92.2-1.85.31-2.77.1-.93.2-1.85.3-2.77.35-2.12.88-3.98,1.59-5.61.87-1.96,1.91-3.71,3.14-5.24l1.18-1.19c-.37.78-.78,1.72-1.24,2.81"/>
  <path class="st3" d="M118.31,56.82c0-1.75-.29-3.76-.87-6.03-.55-1.54-1.03-2.88-1.44-3.99-.41-1.12-.79-2.07-1.13-2.86l1.14,1.24c1.17,1.58,2.15,3.37,2.94,5.36.65,1.65,1.12,3.54,1.39,5.67.07.93.14,1.85.21,2.78.07.93.13,1.85.2,2.78.31,3.64,1.02,7.21,2.16,10.72-2.24-2.24-3.77-7.46-4.58-15.67"/>
  <path class="st3" d="M115.7,17.85c-.33,1.14-.71,2.5-1.15,4.08-.41,2.3-.56,4.33-.43,6.07-.21,8.24-1.35,13.55-3.42,15.94.87-3.58,1.33-7.19,1.36-10.84v-2.79c0-.93,0-1.86,0-2.79.12-2.14.44-4.06.97-5.75.64-2.04,1.49-3.89,2.54-5.55l1.04-1.32c-.29.82-.59,1.79-.92,2.93"/>
</svg>